TITLE ""
FILE "P1Q_t_1478-1487.mp3" MP3
  TRACK 01 AUDIO
    TITLE "P1Q_t_1478-1487_01"
    INDEX 01 00:00:00
  TRACK 02 AUDIO
    TITLE "P1Q_t_1478-1487_02"
    INDEX 01 00:00:10
  TRACK 03 AUDIO
    TITLE "P1Q_t_1478-1487_03"
    INDEX 01 00:01:25
  TRACK 04 AUDIO
    TITLE "P1Q_t_1478-1487_04"
    INDEX 01 00:01:45
  TRACK 05 AUDIO
    TITLE "P1Q_t_1478-1487_05"
    INDEX 01 00:04:02
  TRACK 06 AUDIO
    TITLE "P1Q_t_1478-1487_06"
    INDEX 01 00:04:22
  TRACK 07 AUDIO
    TITLE "P1Q_t_1478-1487_07"
    INDEX 01 00:08:73
  TRACK 08 AUDIO
    TITLE "P1Q_t_1478-1487_08"
    INDEX 01 00:09:46
  TRACK 09 AUDIO
    TITLE "P1Q_t_1478-1487_09"
    INDEX 01 00:10:58
  TRACK 10 AUDIO
    TITLE "P1Q_t_1478-1487_10"
    INDEX 01 00:11:04
  TRACK 11 AUDIO
    TITLE "P1Q_t_1478-1487_11"
    INDEX 01 00:14:03
  TRACK 12 AUDIO
    TITLE "P1Q_t_1478-1487_12"
    INDEX 01 00:14:20
  TRACK 13 AUDIO
    TITLE "P1Q_t_1478-1487_13"
    INDEX 01 00:18:34
  TRACK 14 AUDIO
    TITLE "P1Q_t_1478-1487_14"
    INDEX 01 00:19:06
  TRACK 15 AUDIO
    TITLE "P1Q_t_1478-1487_15"
    INDEX 01 00:20:07
  TRACK 16 AUDIO
    TITLE "P1Q_t_1478-1487_16"
    INDEX 01 00:20:29
  TRACK 17 AUDIO
    TITLE "P1Q_t_1478-1487_17"
    INDEX 01 00:23:27
  TRACK 18 AUDIO
    TITLE "P1Q_t_1478-1487_18"
    INDEX 01 00:23:47
  TRACK 19 AUDIO
    TITLE "P1Q_t_1478-1487_19"
    INDEX 01 00:28:07
  TRACK 20 AUDIO
    TITLE "P1Q_t_1478-1487_20"
    INDEX 01 00:28:52
  TRACK 21 AUDIO
    TITLE "P1Q_t_1478-1487_21"
    INDEX 01 00:30:02
  TRACK 22 AUDIO
    TITLE "P1Q_t_1478-1487_22"
    INDEX 01 00:30:21
  TRACK 23 AUDIO
    TITLE "P1Q_t_1478-1487_23"
    INDEX 01 00:31:40
  TRACK 24 AUDIO
    TITLE "P1Q_t_1478-1487_24"
    INDEX 01 00:31:60
  TRACK 25 AUDIO
    TITLE "P1Q_t_1478-1487_25"
    INDEX 01 00:36:41
  TRACK 26 AUDIO
    TITLE "P1Q_t_1478-1487_26"
    INDEX 01 00:37:11
  TRACK 27 AUDIO
    TITLE "P1Q_t_1478-1487_27"
    INDEX 01 00:38:30
  TRACK 28 AUDIO
    TITLE "P1Q_t_1478-1487_28"
    INDEX 01 00:38:50
  TRACK 29 AUDIO
    TITLE "P1Q_t_1478-1487_29"
    INDEX 01 00:41:13
  TRACK 30 AUDIO
    TITLE "P1Q_t_1478-1487_30"
    INDEX 01 00:41:35
  TRACK 31 AUDIO
    TITLE "P1Q_t_1478-1487_31"
    INDEX 01 00:47:55
  TRACK 32 AUDIO
    TITLE "P1Q_t_1478-1487_32"
    INDEX 01 00:48:25
  TRACK 33 AUDIO
    TITLE "P1Q_t_1478-1487_33"
    INDEX 01 00:49:30
  TRACK 34 AUDIO
    TITLE "P1Q_t_1478-1487_34"
    INDEX 01 00:49:50
  TRACK 35 AUDIO
    TITLE "P1Q_t_1478-1487_35"
    INDEX 01 00:57:12
  TRACK 36 AUDIO
    TITLE "P1Q_t_1478-1487_36"
    INDEX 01 00:57:32
  TRACK 37 AUDIO
    TITLE "P1Q_t_1478-1487_37"
    INDEX 01 01:01:67
  TRACK 38 AUDIO
    TITLE "P1Q_t_1478-1487_38"
    INDEX 01 01:02:37
  TRACK 39 AUDIO
    TITLE "P1Q_t_1478-1487_39"
    INDEX 01 01:03:46
  TRACK 40 AUDIO
    TITLE "P1Q_t_1478-1487_40"
    INDEX 01 01:03:64
  TRACK 41 AUDIO
    TITLE "P1Q_t_1478-1487_41"
    INDEX 01 01:05:25
  TRACK 42 AUDIO
    TITLE "P1Q_t_1478-1487_42"
    INDEX 01 01:05:43
  TRACK 43 AUDIO
    TITLE "P1Q_t_1478-1487_43"
    INDEX 01 01:09:41
  TRACK 44 AUDIO
    TITLE "P1Q_t_1478-1487_44"
    INDEX 01 01:10:11
  TRACK 45 AUDIO
    TITLE "P1Q_t_1478-1487_45"
    INDEX 01 01:11:32
  TRACK 46 AUDIO
    TITLE "P1Q_t_1478-1487_46"
    INDEX 01 01:11:53
  TRACK 47 AUDIO
    TITLE "P1Q_t_1478-1487_47"
    INDEX 01 01:14:48
  TRACK 48 AUDIO
    TITLE "P1Q_t_1478-1487_48"
    INDEX 01 01:14:67
  TRACK 49 AUDIO
    TITLE "P1Q_t_1478-1487_49"
    INDEX 01 01:19:67
  TRACK 50 AUDIO
    TITLE "P1Q_t_1478-1487_50"
    INDEX 01 01:20:37
  TRACK 51 AUDIO
    TITLE "P1Q_t_1478-1487_51"
    INDEX 01 01:21:54
  TRACK 52 AUDIO
    TITLE "P1Q_t_1478-1487_52"
    INDEX 01 01:21:73
  TRACK 53 AUDIO
    TITLE "P1Q_t_1478-1487_53"
    INDEX 01 01:25:75
  TRACK 54 AUDIO
    TITLE "P1Q_t_1478-1487_54"
    INDEX 01 01:26:22
  TRACK 55 AUDIO
    TITLE "P1Q_t_1478-1487_55"
    INDEX 01 01:31:13
  TRACK 56 AUDIO
    TITLE "P1Q_t_1478-1487_56"
    INDEX 01 01:31:58
  TRACK 57 AUDIO
    TITLE "P1Q_t_1478-1487_57"
    INDEX 01 01:32:73
  TRACK 58 AUDIO
    TITLE "P1Q_t_1478-1487_58"
    INDEX 01 01:33:20
  TRACK 59 AUDIO
    TITLE "P1Q_t_1478-1487_59"
    INDEX 01 01:35:52
  TRACK 60 AUDIO
    TITLE "P1Q_t_1478-1487_60"
    INDEX 01 01:35:72
  TRACK 61 AUDIO
    TITLE "P1Q_t_1478-1487_61"
    INDEX 01 01:39:64
